<?xml version="1.0" encoding="UTF-8"?>
<svg width="500" height="500" viewBox="0 0 500 500" fill="none" xmlns="http://www.w3.org/2000/svg">
  <rect width="500" height="500" rx="250" fill="#F5F7FA"/>
  <path d="M250 150V300M300 225H200" stroke="#4F46E5" stroke-width="20" stroke-linecap="round"/>
  <path d="M250 350C245.5 350 242 346.5 242 342C242 337.5 245.5 334 250 334C254.5 334 258 337.5 258 342C258 346.5 254.5 350 250 350Z" fill="#4F46E5"/>
  <path d="M250 100C172.525 100 110 162.525 110 240C110 317.475 172.525 380 250 380C327.475 380 390 317.475 390 240C390 162.525 327.475 100 250 100ZM250 350C189.725 350 140 300.275 140 240C140 179.725 189.725 130 250 130C310.275 130 360 179.725 360 240C360 300.275 310.275 350 250 350Z" fill="#4F46E5"/>
</svg>
